HIERARCHY
ROOT Hips
{
	OFFSET 0.000000 0.000000 0.000000
	CHANNELS 6 Xposition Yposition Zposition Xrotation Yrotation Zrotation
	JOINT LeftUpLeg_virtual
	{
		OFFSET 0.000000 0.000000 0.000000
		CHANNELS 3 Xrotation Yrotation Zrotation
		JOINT LeftUpLeg
		{
			OFFSET 10.205400 -3.823500 0.155100
			CHANNELS 3 Xrotation Yrotation Zrotation
			JOINT LeftLeg
			{
				OFFSET 0.708757 -12.982077 0.567790
				CHANNELS 3 Xrotation Yrotation Zrotation
				JOINT LeftFoot
				{
					OFFSET -0.708756 -10.717838 -2.184338
					CHANNELS 3 Xrotation Yrotation Zrotation
					JOINT LeftToeBase
					{
						OFFSET 0.108149 -7.191104 7.560241
						CHANNELS 3 Xrotation Yrotation Zrotation
						JOINT LeftToe_End
						{
							OFFSET 0.070230 0.081724 4.490308
							CHANNELS 3 Xrotation Yrotation Zrotation
							End Site
							{
								OFFSET 0 0 0
							}
						}
					}
				}
			}
		}
	}
	JOINT RightUpLeg_virtual
	{
		OFFSET 0.000000 0.000000 0.000000
		CHANNELS 3 Xrotation Yrotation Zrotation
		JOINT RightUpLeg
		{
			OFFSET -10.205400 -3.823500 0.005500
			CHANNELS 3 Xrotation Yrotation Zrotation
			JOINT RightLeg
			{
				OFFSET -0.708756 -12.982134 0.610632
				CHANNELS 3 Xrotation Yrotation Zrotation
				JOINT RightFoot
				{
					OFFSET 0.708754 -10.717769 -1.945823
					CHANNELS 3 Xrotation Yrotation Zrotation
					JOINT RightToeBase
					{
						OFFSET -0.108140 -7.191069 7.372968
						CHANNELS 3 Xrotation Yrotation Zrotation
						JOINT RightToe_End
						{
							OFFSET -0.070227 0.081735 4.479403
							CHANNELS 3 Xrotation Yrotation Zrotation
							End Site
							{
								OFFSET 0 0 0
							}
						}
					}
				}
			}
		}
	}
	JOINT Spine_virtual
	{
		OFFSET 0.000000 0.000000 0.000000
		CHANNELS 3 Xrotation Yrotation Zrotation
		JOINT Spine
		{
			OFFSET 0.000000 6.876099 0.125700
			CHANNELS 3 Xrotation Yrotation Zrotation
			JOINT Spine1
			{
				OFFSET 0.000000 5.730043 0.104720
				CHANNELS 3 Xrotation Yrotation Zrotation
				JOINT Spine1_split
				{
					OFFSET 0.000000 5.730043 0.104720
					CHANNELS 3 Xrotation Yrotation Zrotation
					JOINT Spine2
					{
						OFFSET 0.000000 5.730043 0.104720
						CHANNELS 3 Xrotation Yrotation Zrotation
						JOINT Neck_virtual
						{
							OFFSET 0.000000 0.000000 0.000000
							CHANNELS 3 Xrotation Yrotation Zrotation
							JOINT Neck
							{
								OFFSET 0.000000 10.314075 0.188496
								CHANNELS 3 Xrotation Yrotation Zrotation
								JOINT Head
								{
									OFFSET 0.000000 7.643700 -2.377400
									CHANNELS 3 Xrotation Yrotation Zrotation
									JOINT HeadTop_End
									{
										OFFSET 0.000000 43.788605 -13.619600
										CHANNELS 3 Xrotation Yrotation Zrotation
										End Site
										{
											OFFSET 0 0 0
										}
									}
								}
							}
						}
						JOINT LeftShoulder_virtual
						{
							OFFSET 0.000000 0.000000 0.000000
							CHANNELS 3 Xrotation Yrotation Zrotation
							JOINT LeftShoulder
							{
								OFFSET 2.196100 4.412489 0.087492
								CHANNELS 3 Xrotation Yrotation Zrotation
								JOINT LeftShoulder_split
								{
									OFFSET 2.196100 4.412489 0.087492
									CHANNELS 3 Xrotation Yrotation Zrotation
									JOINT LeftArm
									{
										OFFSET 8.771219 -2.981674 -0.026999
										CHANNELS 3 Xrotation Yrotation Zrotation
										JOINT LeftForeArm
										{
											OFFSET 8.512804 0.000000 -0.000000
											CHANNELS 3 Xrotation Yrotation Zrotation
											JOINT LeftHand
											{
												OFFSET 18.484802 0.000000 -0.000000
												CHANNELS 3 Xrotation Yrotation Zrotation
												End Site
												{
													OFFSET 0 0 0
												}
											}
										}
									}
								}
							}
						}
						JOINT RightShoulder_virtual
						{
							OFFSET 0.000000 0.000000 0.000000
							CHANNELS 3 Xrotation Yrotation Zrotation
							JOINT RightShoulder
							{
								OFFSET -2.196100 4.412496 0.070690
								CHANNELS 3 Xrotation Yrotation Zrotation
								JOINT RightShoulder_split
								{
									OFFSET -2.196100 4.412496 0.070690
									CHANNELS 3 Xrotation Yrotation Zrotation
									JOINT RightArm
									{
										OFFSET -8.771282 -2.981682 -0.094208
										CHANNELS 3 Xrotation Yrotation Zrotation
										JOINT RightForeArm
										{
											OFFSET -8.494598 0.000000 0.000000
											CHANNELS 3 Xrotation Yrotation Zrotation
											JOINT RightHand
											{
												OFFSET -18.483803 0.000000 0.000001
												CHANNELS 3 Xrotation Yrotation Zrotation
												End Site
												{
													OFFSET 0 0 0
												}
											}
										}
									}
								}
							}
						}
					}
				}
			}
		}
	}
}
MOTION
Frames: 4
Frame Time: 0.03333333
1.310607 24.109535 64.256950 0.000000 0.000000 0.000000 10.710738 -5.572795 1.896995 33.345871 24.435213 11.706915 28.161474 21.051787 3.253275 10.822331 -0.788011 -9.739524 -32.238288 -15.629341 -22.603869 0.000000 0.000000 0.000000 13.727730 -20.550185 -0.552417 -82.344966 -8.185676 -5.862409 72.227256 2.361659 -13.758606 -23.948252 -1.504262 18.396978 26.832022 -8.867659 -13.677902 0.000000 0.000000 0.000000 5.305412 -19.440701 -1.176940 1.882673 -2.354745 0.198974 3.815174 -6.266556 -1.140048 -1.534256 1.297202 0.457748 0.000000 0.000000 0.000000 2.334384 -3.706838 0.497457 -0.570601 0.076189 -2.753133 -7.361092 15.351793 14.510163 0.000000 0.000000 0.000000 8.042144 -1.475378 0.039501 -9.321553 -27.703811 -23.087086 -0.998309 5.193860 6.138256 -61.891575 -10.112472 -24.227017 -4.957000 -54.335384 9.277700 0.000000 0.000000 0.000000 14.393101 -4.612442 8.173014 -6.022476 16.382006 -0.744823 -0.475809 3.195101 -14.890683 -29.259639 6.922804 11.618863 0.834358 63.640902 -0.529315 0.000000 0.000000 0.000000 
0.984035 23.881975 65.736282 0.000000 0.000000 0.000000 13.159261 -11.588345 0.812165 35.321248 26.534276 9.817867 22.265349 22.100875 6.669737 12.104062 -0.162918 -7.261422 -15.824481 -17.235438 -17.594229 0.000000 0.000000 0.000000 13.838606 -26.526483 -2.300191 -81.033303 -10.318285 -0.932841 74.619270 2.807329 -10.341643 -25.220487 -3.746176 15.427772 20.055175 -6.882531 -13.819127 0.000000 0.000000 0.000000 7.438081 -25.022907 -1.712131 2.055996 -1.675328 -0.084241 2.936386 -9.453600 -0.269296 -1.180724 -0.447958 0.544492 0.000000 0.000000 0.000000 2.287288 -7.100577 1.139647 0.041120 4.463230 -2.918264 -7.444296 25.209658 15.636094 0.000000 0.000000 0.000000 8.363871 -4.070916 1.900945 -10.665974 -35.991764 -22.879583 -1.909472 5.314198 7.040357 -60.546649 -17.977679 -32.061311 -0.574914 -25.783378 9.060986 0.000000 0.000000 0.000000 15.099363 -7.481937 10.698148 -6.069788 12.918535 9.594421 -2.243730 1.016121 -17.188439 -14.575380 -14.319301 4.836632 0.834358 63.640902 -0.529315 0.000000 0.000000 0.000000 
0.628566 23.730398 67.282326 0.000000 0.000000 0.000000 15.638183 -17.394723 0.033286 35.090213 28.865479 9.229627 19.104980 22.320064 8.116386 13.854401 0.473806 -7.211714 5.464650 -14.221539 -11.006221 0.000000 0.000000 0.000000 13.793725 -31.760257 -3.937677 -78.767401 -11.212355 2.967771 76.295815 3.914459 -6.592065 -25.901097 -5.336507 11.534517 11.603311 -3.436332 -11.214609 0.000000 0.000000 0.000000 9.809074 -29.657016 -2.259719 2.221123 -0.971037 -0.340403 2.249286 -12.003851 0.722134 -0.829119 -1.891854 0.532538 0.000000 0.000000 0.000000 2.326606 -9.729686 1.712719 0.450917 8.137971 -3.339318 -6.865283 33.619574 16.054442 0.000000 0.000000 0.000000 8.443917 -6.073715 3.739675 -10.677094 -41.589363 -21.183330 -2.848175 5.990954 7.201221 -59.571585 -25.147297 -40.468700 3.941140 -4.833220 8.606881 0.000000 0.000000 0.000000 15.345092 -9.936405 12.375483 -5.291183 10.187867 16.613119 -5.233032 -0.804372 -17.547017 -4.073763 -29.091572 3.961484 0.834358 63.640902 -0.529315 0.000000 0.000000 0.000000 
0.264601 23.636517 69.002510 0.000000 0.000000 0.000000 17.647332 -23.379212 -0.507694 32.309117 31.281156 10.115294 19.719398 22.069120 6.735655 16.621199 0.489866 -9.900521 25.123410 -6.884560 -7.385521 0.000000 0.000000 0.000000 13.493925 -36.894923 -5.450482 -75.546721 -10.489899 6.028420 76.718918 6.057468 -2.781587 -25.734688 -5.404783 7.472301 4.179817 -0.055501 -6.297413 0.000000 0.000000 0.000000 11.576179 -34.450354 -3.080709 2.271566 -0.743527 -0.503452 1.878616 -13.835220 1.688038 -0.555071 -2.978124 0.443282 0.000000 0.000000 0.000000 2.394223 -11.374650 2.047911 0.583258 10.840934 -3.978440 -5.767106 40.003831 16.157825 0.000000 0.000000 0.000000 8.121827 -7.481857 5.298534 -9.503800 -44.492487 -18.869434 -3.777228 6.910563 6.332404 -59.358422 -29.955099 -48.453663 8.979474 6.135153 7.552905 0.000000 0.000000 0.000000 15.145494 -11.673634 13.154912 -4.113751 8.711844 20.737588 -7.180426 -2.577322 -17.604145 2.333583 -38.211681 4.939690 0.834358 63.640902 -0.529315 0.000000 0.000000 0.000000 
